<mxfile host="420d052e-4e05-4c8c-a563-7054215ba4e4" modified="2020-07-25T06:10:27.049Z" agent="5.0 (Macintosh; Intel Mac OS X 10_15_5) AppleWebKit/537.36 (KHTML, like Gecko) Code/1.47.2 Chrome/78.0.3904.130 Electron/7.3.2 Safari/537.36" etag="3u1sB2L1-y0mJd_FFo6V" version="13.1.3">
    <diagram id="6hGFLwfOUW9BJ-s0fimq" name="Page-1">
        <mxGraphModel dx="2552" dy="680" grid="1" gridSize="10" guides="1" tooltips="1" connect="1" arrows="1" fold="1" page="1" pageScale="1" pageWidth="1654" pageHeight="1169" math="0" shadow="0">
            <root>
                <mxCell id="0"/>
                <mxCell id="1" parent="0"/>
                <mxCell id="yD3as-fylKnx1eR_pSZM-77" style="edgeStyle=orthogonalEdgeStyle;rounded=1;orthogonalLoop=1;jettySize=auto;html=1;exitX=0.5;exitY=0;exitDx=0;exitDy=0;entryX=0;entryY=0.5;entryDx=0;entryDy=0;fontSize=12;endFill=1;endArrow=ERzeroToMany;" edge="1" parent="1" source="11" target="yD3as-fylKnx1eR_pSZM-63">
                    <mxGeometry relative="1" as="geometry"/>
                </mxCell>
                <mxCell id="yD3as-fylKnx1eR_pSZM-105" value="ユーザーは複数のイベントに参加できる" style="edgeLabel;html=1;align=center;verticalAlign=middle;resizable=0;points=[];" vertex="1" connectable="0" parent="yD3as-fylKnx1eR_pSZM-77">
                    <mxGeometry x="-0.3215" y="1" relative="1" as="geometry">
                        <mxPoint x="1" y="42" as="offset"/>
                    </mxGeometry>
                </mxCell>
                <mxCell id="yD3as-fylKnx1eR_pSZM-78" style="rounded=1;orthogonalLoop=1;jettySize=auto;html=1;exitX=0.5;exitY=0;exitDx=0;exitDy=0;entryX=1;entryY=0.5;entryDx=0;entryDy=0;fontSize=12;endFill=1;endArrow=ERzeroToMany;edgeStyle=orthogonalEdgeStyle;" edge="1" parent="1" source="yD3as-fylKnx1eR_pSZM-21" target="yD3as-fylKnx1eR_pSZM-65">
                    <mxGeometry relative="1" as="geometry"/>
                </mxCell>
                <mxCell id="yD3as-fylKnx1eR_pSZM-107" value="イベントは複数のユーザーから参加される" style="edgeLabel;html=1;align=center;verticalAlign=middle;resizable=0;points=[];" vertex="1" connectable="0" parent="yD3as-fylKnx1eR_pSZM-78">
                    <mxGeometry x="-0.2358" y="-3" relative="1" as="geometry">
                        <mxPoint x="-3" y="50" as="offset"/>
                    </mxGeometry>
                </mxCell>
                <mxCell id="yD3as-fylKnx1eR_pSZM-79" style="edgeStyle=orthogonalEdgeStyle;rounded=1;orthogonalLoop=1;jettySize=auto;html=1;exitX=1;exitY=0.5;exitDx=0;exitDy=0;entryX=0;entryY=0.5;entryDx=0;entryDy=0;fontSize=12;endFill=1;endArrow=ERzeroToMany;" edge="1" parent="1" source="12" target="yD3as-fylKnx1eR_pSZM-54">
                    <mxGeometry relative="1" as="geometry"/>
                </mxCell>
                <mxCell id="yD3as-fylKnx1eR_pSZM-104" value="ユーザーは複数イベントを作成する" style="edgeLabel;html=1;align=center;verticalAlign=middle;resizable=0;points=[];" vertex="1" connectable="0" parent="yD3as-fylKnx1eR_pSZM-79">
                    <mxGeometry x="-0.4175" y="-55" relative="1" as="geometry">
                        <mxPoint x="60" y="93" as="offset"/>
                    </mxGeometry>
                </mxCell>
                <mxCell id="yD3as-fylKnx1eR_pSZM-21" value="Event" style="swimlane;fontStyle=0;childLayout=stackLayout;horizontal=1;startSize=26;horizontalStack=0;resizeParent=1;resizeParentMax=0;resizeLast=0;collapsible=1;marginBottom=0;align=center;fontSize=14;" vertex="1" parent="1">
                    <mxGeometry x="-700" y="360" width="200" height="274" as="geometry">
                        <mxRectangle x="280" y="190" width="60" height="26" as="alternateBounds"/>
                    </mxGeometry>
                </mxCell>
                <mxCell id="yD3as-fylKnx1eR_pSZM-22" value="id" style="shape=partialRectangle;top=0;left=0;right=0;bottom=1;align=left;verticalAlign=middle;fillColor=none;spacingLeft=34;spacingRight=4;overflow=hidden;rotatable=0;points=[[0,0.5],[1,0.5]];portConstraint=eastwest;dropTarget=0;fontStyle=5;fontSize=12;" vertex="1" parent="yD3as-fylKnx1eR_pSZM-21">
                    <mxGeometry y="26" width="200" height="30" as="geometry"/>
                </mxCell>
                <mxCell id="yD3as-fylKnx1eR_pSZM-23" value="PK" style="shape=partialRectangle;top=0;left=0;bottom=0;fillColor=none;align=left;verticalAlign=middle;spacingLeft=4;spacingRight=4;overflow=hidden;rotatable=0;points=[];portConstraint=eastwest;part=1;fontSize=12;" vertex="1" connectable="0" parent="yD3as-fylKnx1eR_pSZM-22">
                    <mxGeometry width="30" height="30" as="geometry"/>
                </mxCell>
                <mxCell id="yD3as-fylKnx1eR_pSZM-24" value="name: イベント名" style="shape=partialRectangle;top=0;left=0;right=0;bottom=0;align=left;verticalAlign=top;fillColor=none;spacingLeft=34;spacingRight=4;overflow=hidden;rotatable=0;points=[[0,0.5],[1,0.5]];portConstraint=eastwest;dropTarget=0;fontSize=12;" vertex="1" parent="yD3as-fylKnx1eR_pSZM-21">
                    <mxGeometry y="56" width="200" height="26" as="geometry"/>
                </mxCell>
                <mxCell id="yD3as-fylKnx1eR_pSZM-25" value="" style="shape=partialRectangle;top=0;left=0;bottom=0;fillColor=none;align=left;verticalAlign=top;spacingLeft=4;spacingRight=4;overflow=hidden;rotatable=0;points=[];portConstraint=eastwest;part=1;fontSize=12;" vertex="1" connectable="0" parent="yD3as-fylKnx1eR_pSZM-24">
                    <mxGeometry width="30" height="26" as="geometry"/>
                </mxCell>
                <mxCell id="yD3as-fylKnx1eR_pSZM-56" value="content: イベント詳細" style="shape=partialRectangle;top=0;left=0;right=0;bottom=0;align=left;verticalAlign=top;fillColor=none;spacingLeft=34;spacingRight=4;overflow=hidden;rotatable=0;points=[[0,0.5],[1,0.5]];portConstraint=eastwest;dropTarget=0;fontSize=12;" vertex="1" parent="yD3as-fylKnx1eR_pSZM-21">
                    <mxGeometry y="82" width="200" height="26" as="geometry"/>
                </mxCell>
                <mxCell id="yD3as-fylKnx1eR_pSZM-57" value="" style="shape=partialRectangle;top=0;left=0;bottom=0;fillColor=none;align=left;verticalAlign=top;spacingLeft=4;spacingRight=4;overflow=hidden;rotatable=0;points=[];portConstraint=eastwest;part=1;fontSize=12;" vertex="1" connectable="0" parent="yD3as-fylKnx1eR_pSZM-56">
                    <mxGeometry width="30" height="26" as="geometry"/>
                </mxCell>
                <mxCell id="yD3as-fylKnx1eR_pSZM-26" value="place: 開催場所" style="shape=partialRectangle;top=0;left=0;right=0;bottom=0;align=left;verticalAlign=top;fillColor=none;spacingLeft=34;spacingRight=4;overflow=hidden;rotatable=0;points=[[0,0.5],[1,0.5]];portConstraint=eastwest;dropTarget=0;fontSize=12;" vertex="1" parent="yD3as-fylKnx1eR_pSZM-21">
                    <mxGeometry y="108" width="200" height="26" as="geometry"/>
                </mxCell>
                <mxCell id="yD3as-fylKnx1eR_pSZM-27" value="" style="shape=partialRectangle;top=0;left=0;bottom=0;fillColor=none;align=left;verticalAlign=top;spacingLeft=4;spacingRight=4;overflow=hidden;rotatable=0;points=[];portConstraint=eastwest;part=1;fontSize=12;" vertex="1" connectable="0" parent="yD3as-fylKnx1eR_pSZM-26">
                    <mxGeometry width="30" height="26" as="geometry"/>
                </mxCell>
                <mxCell id="yD3as-fylKnx1eR_pSZM-28" value="start_time: 開始時間" style="shape=partialRectangle;top=0;left=0;right=0;bottom=0;align=left;verticalAlign=top;fillColor=none;spacingLeft=34;spacingRight=4;overflow=hidden;rotatable=0;points=[[0,0.5],[1,0.5]];portConstraint=eastwest;dropTarget=0;fontSize=12;" vertex="1" parent="yD3as-fylKnx1eR_pSZM-21">
                    <mxGeometry y="134" width="200" height="26" as="geometry"/>
                </mxCell>
                <mxCell id="yD3as-fylKnx1eR_pSZM-29" value="" style="shape=partialRectangle;top=0;left=0;bottom=0;fillColor=none;align=left;verticalAlign=top;spacingLeft=4;spacingRight=4;overflow=hidden;rotatable=0;points=[];portConstraint=eastwest;part=1;fontSize=12;" vertex="1" connectable="0" parent="yD3as-fylKnx1eR_pSZM-28">
                    <mxGeometry width="30" height="26" as="geometry"/>
                </mxCell>
                <mxCell id="yD3as-fylKnx1eR_pSZM-30" value="end_time: 終了時間" style="shape=partialRectangle;top=0;left=0;right=0;bottom=0;align=left;verticalAlign=top;fillColor=none;spacingLeft=34;spacingRight=4;overflow=hidden;rotatable=0;points=[[0,0.5],[1,0.5]];portConstraint=eastwest;dropTarget=0;fontSize=12;" vertex="1" parent="yD3as-fylKnx1eR_pSZM-21">
                    <mxGeometry y="160" width="200" height="26" as="geometry"/>
                </mxCell>
                <mxCell id="yD3as-fylKnx1eR_pSZM-31" value="" style="shape=partialRectangle;top=0;left=0;bottom=0;fillColor=none;align=left;verticalAlign=top;spacingLeft=4;spacingRight=4;overflow=hidden;rotatable=0;points=[];portConstraint=eastwest;part=1;fontSize=12;" vertex="1" connectable="0" parent="yD3as-fylKnx1eR_pSZM-30">
                    <mxGeometry width="30" height="26" as="geometry"/>
                </mxCell>
                <mxCell id="yD3as-fylKnx1eR_pSZM-124" value="level: スポーツのレベル" style="shape=partialRectangle;top=0;left=0;right=0;bottom=0;align=left;verticalAlign=top;fillColor=none;spacingLeft=34;spacingRight=4;overflow=hidden;rotatable=0;points=[[0,0.5],[1,0.5]];portConstraint=eastwest;dropTarget=0;fontSize=12;" vertex="1" parent="yD3as-fylKnx1eR_pSZM-21">
                    <mxGeometry y="186" width="200" height="26" as="geometry"/>
                </mxCell>
                <mxCell id="yD3as-fylKnx1eR_pSZM-125" value="" style="shape=partialRectangle;top=0;left=0;bottom=0;fillColor=none;align=left;verticalAlign=top;spacingLeft=4;spacingRight=4;overflow=hidden;rotatable=0;points=[];portConstraint=eastwest;part=1;fontSize=12;" vertex="1" connectable="0" parent="yD3as-fylKnx1eR_pSZM-124">
                    <mxGeometry width="30" height="26" as="geometry"/>
                </mxCell>
                <mxCell id="yD3as-fylKnx1eR_pSZM-54" value="owner_id: イベント作成者" style="shape=partialRectangle;top=0;left=0;right=0;bottom=0;align=left;verticalAlign=top;fillColor=none;spacingLeft=34;spacingRight=4;overflow=hidden;rotatable=0;points=[[0,0.5],[1,0.5]];portConstraint=eastwest;dropTarget=0;fontSize=12;" vertex="1" parent="yD3as-fylKnx1eR_pSZM-21">
                    <mxGeometry y="212" width="200" height="26" as="geometry"/>
                </mxCell>
                <mxCell id="yD3as-fylKnx1eR_pSZM-55" value="FK" style="shape=partialRectangle;top=0;left=0;bottom=0;fillColor=none;align=left;verticalAlign=top;spacingLeft=4;spacingRight=4;overflow=hidden;rotatable=0;points=[];portConstraint=eastwest;part=1;fontSize=12;" vertex="1" connectable="0" parent="yD3as-fylKnx1eR_pSZM-54">
                    <mxGeometry width="30" height="26" as="geometry"/>
                </mxCell>
                <mxCell id="yD3as-fylKnx1eR_pSZM-162" value="category_id" style="shape=partialRectangle;top=0;left=0;right=0;bottom=0;align=left;verticalAlign=top;fillColor=none;spacingLeft=34;spacingRight=4;overflow=hidden;rotatable=0;points=[[0,0.5],[1,0.5]];portConstraint=eastwest;dropTarget=0;fontSize=12;" vertex="1" parent="yD3as-fylKnx1eR_pSZM-21">
                    <mxGeometry y="238" width="200" height="26" as="geometry"/>
                </mxCell>
                <mxCell id="yD3as-fylKnx1eR_pSZM-163" value="FK" style="shape=partialRectangle;top=0;left=0;bottom=0;fillColor=none;align=left;verticalAlign=top;spacingLeft=4;spacingRight=4;overflow=hidden;rotatable=0;points=[];portConstraint=eastwest;part=1;fontSize=12;" vertex="1" connectable="0" parent="yD3as-fylKnx1eR_pSZM-162">
                    <mxGeometry width="30" height="26" as="geometry"/>
                </mxCell>
                <mxCell id="yD3as-fylKnx1eR_pSZM-154" value="" style="shape=partialRectangle;top=0;left=0;right=0;bottom=0;align=left;verticalAlign=top;fillColor=none;spacingLeft=34;spacingRight=4;overflow=hidden;rotatable=0;points=[[0,0.5],[1,0.5]];portConstraint=eastwest;dropTarget=0;fontSize=12;" vertex="1" parent="yD3as-fylKnx1eR_pSZM-21">
                    <mxGeometry y="264" width="200" height="10" as="geometry"/>
                </mxCell>
                <mxCell id="yD3as-fylKnx1eR_pSZM-155" value="" style="shape=partialRectangle;top=0;left=0;bottom=0;fillColor=none;align=left;verticalAlign=top;spacingLeft=4;spacingRight=4;overflow=hidden;rotatable=0;points=[];portConstraint=eastwest;part=1;fontSize=12;" vertex="1" connectable="0" parent="yD3as-fylKnx1eR_pSZM-154">
                    <mxGeometry width="30" height="10" as="geometry"/>
                </mxCell>
                <mxCell id="yD3as-fylKnx1eR_pSZM-160" style="edgeStyle=orthogonalEdgeStyle;rounded=1;orthogonalLoop=1;jettySize=auto;html=1;entryX=1;entryY=0.5;entryDx=0;entryDy=0;fontSize=12;endFill=1;endArrow=ERzeroToMany;" edge="1" parent="1" source="11" target="yD3as-fylKnx1eR_pSZM-129">
                    <mxGeometry relative="1" as="geometry"/>
                </mxCell>
                <mxCell id="yD3as-fylKnx1eR_pSZM-165" value="フォロワー" style="edgeLabel;html=1;align=center;verticalAlign=middle;resizable=0;points=[];" vertex="1" connectable="0" parent="yD3as-fylKnx1eR_pSZM-160">
                    <mxGeometry x="-0.5676" y="1" relative="1" as="geometry">
                        <mxPoint x="-1" y="-20" as="offset"/>
                    </mxGeometry>
                </mxCell>
                <mxCell id="11" value="User" style="swimlane;fontStyle=0;childLayout=stackLayout;horizontal=1;startSize=26;horizontalStack=0;resizeParent=1;resizeParentMax=0;resizeLast=0;collapsible=1;marginBottom=0;align=center;fontSize=14;" vertex="1" parent="1">
                    <mxGeometry x="-1130" y="360" width="200" height="170" as="geometry">
                        <mxRectangle x="280" y="190" width="60" height="26" as="alternateBounds"/>
                    </mxGeometry>
                </mxCell>
                <mxCell id="12" value="id" style="shape=partialRectangle;top=0;left=0;right=0;bottom=1;align=left;verticalAlign=middle;fillColor=none;spacingLeft=34;spacingRight=4;overflow=hidden;rotatable=0;points=[[0,0.5],[1,0.5]];portConstraint=eastwest;dropTarget=0;fontStyle=5;fontSize=12;" vertex="1" parent="11">
                    <mxGeometry y="26" width="200" height="30" as="geometry"/>
                </mxCell>
                <mxCell id="13" value="PK" style="shape=partialRectangle;top=0;left=0;bottom=0;fillColor=none;align=left;verticalAlign=middle;spacingLeft=4;spacingRight=4;overflow=hidden;rotatable=0;points=[];portConstraint=eastwest;part=1;fontSize=12;" vertex="1" connectable="0" parent="12">
                    <mxGeometry width="30.459374999999998" height="30" as="geometry"/>
                </mxCell>
                <mxCell id="14" value="name ユーザー名" style="shape=partialRectangle;top=0;left=0;right=0;bottom=0;align=left;verticalAlign=top;fillColor=none;spacingLeft=34;spacingRight=4;overflow=hidden;rotatable=0;points=[[0,0.5],[1,0.5]];portConstraint=eastwest;dropTarget=0;fontSize=12;" vertex="1" parent="11">
                    <mxGeometry y="56" width="200" height="26" as="geometry"/>
                </mxCell>
                <mxCell id="15" value="" style="shape=partialRectangle;top=0;left=0;bottom=0;fillColor=none;align=left;verticalAlign=top;spacingLeft=4;spacingRight=4;overflow=hidden;rotatable=0;points=[];portConstraint=eastwest;part=1;fontSize=12;" vertex="1" connectable="0" parent="14">
                    <mxGeometry width="30" height="26" as="geometry"/>
                </mxCell>
                <mxCell id="16" value="email: メールアドレス" style="shape=partialRectangle;top=0;left=0;right=0;bottom=0;align=left;verticalAlign=top;fillColor=none;spacingLeft=34;spacingRight=4;overflow=hidden;rotatable=0;points=[[0,0.5],[1,0.5]];portConstraint=eastwest;dropTarget=0;fontSize=12;" vertex="1" parent="11">
                    <mxGeometry y="82" width="200" height="26" as="geometry"/>
                </mxCell>
                <mxCell id="17" value="" style="shape=partialRectangle;top=0;left=0;bottom=0;fillColor=none;align=left;verticalAlign=top;spacingLeft=4;spacingRight=4;overflow=hidden;rotatable=0;points=[];portConstraint=eastwest;part=1;fontSize=12;" vertex="1" connectable="0" parent="16">
                    <mxGeometry width="30" height="26" as="geometry"/>
                </mxCell>
                <mxCell id="18" value="password: パスワード" style="shape=partialRectangle;top=0;left=0;right=0;bottom=0;align=left;verticalAlign=top;fillColor=none;spacingLeft=34;spacingRight=4;overflow=hidden;rotatable=0;points=[[0,0.5],[1,0.5]];portConstraint=eastwest;dropTarget=0;fontSize=12;" vertex="1" parent="11">
                    <mxGeometry y="108" width="200" height="26" as="geometry"/>
                </mxCell>
                <mxCell id="19" value="" style="shape=partialRectangle;top=0;left=0;bottom=0;fillColor=none;align=left;verticalAlign=top;spacingLeft=4;spacingRight=4;overflow=hidden;rotatable=0;points=[];portConstraint=eastwest;part=1;fontSize=12;" vertex="1" connectable="0" parent="18">
                    <mxGeometry width="30" height="26" as="geometry"/>
                </mxCell>
                <mxCell id="yD3as-fylKnx1eR_pSZM-19" value="image: ユーザー画像" style="shape=partialRectangle;top=0;left=0;right=0;bottom=0;align=left;verticalAlign=top;fillColor=none;spacingLeft=34;spacingRight=4;overflow=hidden;rotatable=0;points=[[0,0.5],[1,0.5]];portConstraint=eastwest;dropTarget=0;fontSize=12;" vertex="1" parent="11">
                    <mxGeometry y="134" width="200" height="26" as="geometry"/>
                </mxCell>
                <mxCell id="yD3as-fylKnx1eR_pSZM-20" value="" style="shape=partialRectangle;top=0;left=0;bottom=0;fillColor=none;align=left;verticalAlign=top;spacingLeft=4;spacingRight=4;overflow=hidden;rotatable=0;points=[];portConstraint=eastwest;part=1;fontSize=12;" vertex="1" connectable="0" parent="yD3as-fylKnx1eR_pSZM-19">
                    <mxGeometry width="30" height="26" as="geometry"/>
                </mxCell>
                <mxCell id="yD3as-fylKnx1eR_pSZM-150" value="" style="shape=partialRectangle;top=0;left=0;right=0;bottom=0;align=left;verticalAlign=top;fillColor=none;spacingLeft=34;spacingRight=4;overflow=hidden;rotatable=0;points=[[0,0.5],[1,0.5]];portConstraint=eastwest;dropTarget=0;fontSize=12;" vertex="1" parent="11">
                    <mxGeometry y="160" width="200" height="10" as="geometry"/>
                </mxCell>
                <mxCell id="yD3as-fylKnx1eR_pSZM-151" value="" style="shape=partialRectangle;top=0;left=0;bottom=0;fillColor=none;align=left;verticalAlign=top;spacingLeft=4;spacingRight=4;overflow=hidden;rotatable=0;points=[];portConstraint=eastwest;part=1;fontSize=12;" vertex="1" connectable="0" parent="yD3as-fylKnx1eR_pSZM-150">
                    <mxGeometry width="30" height="10" as="geometry"/>
                </mxCell>
                <mxCell id="yD3as-fylKnx1eR_pSZM-137" style="edgeStyle=orthogonalEdgeStyle;rounded=1;orthogonalLoop=1;jettySize=auto;html=1;exitX=0;exitY=0.5;exitDx=0;exitDy=0;entryX=0.5;entryY=0;entryDx=0;entryDy=0;fontSize=12;endFill=1;endArrow=ERzeroToMany;" edge="1" parent="1" source="12" target="yD3as-fylKnx1eR_pSZM-126">
                    <mxGeometry relative="1" as="geometry"/>
                </mxCell>
                <mxCell id="yD3as-fylKnx1eR_pSZM-164" value="フォロー" style="edgeLabel;html=1;align=center;verticalAlign=middle;resizable=0;points=[];" vertex="1" connectable="0" parent="yD3as-fylKnx1eR_pSZM-137">
                    <mxGeometry x="0.0031" y="50" relative="1" as="geometry">
                        <mxPoint x="-27" y="4" as="offset"/>
                    </mxGeometry>
                </mxCell>
                <mxCell id="yD3as-fylKnx1eR_pSZM-161" style="edgeStyle=orthogonalEdgeStyle;rounded=1;orthogonalLoop=1;jettySize=auto;html=1;exitX=0;exitY=0.5;exitDx=0;exitDy=0;entryX=1;entryY=0.5;entryDx=0;entryDy=0;fontSize=12;endFill=1;endArrow=ERzeroToMany;" edge="1" parent="1" source="yD3as-fylKnx1eR_pSZM-109" target="yD3as-fylKnx1eR_pSZM-162">
                    <mxGeometry relative="1" as="geometry"/>
                </mxCell>
                <mxCell id="yD3as-fylKnx1eR_pSZM-108" value="Category" style="swimlane;fontStyle=0;childLayout=stackLayout;horizontal=1;startSize=26;horizontalStack=0;resizeParent=1;resizeParentMax=0;resizeLast=0;collapsible=1;marginBottom=0;align=center;fontSize=14;shadow=1;" vertex="1" parent="1">
                    <mxGeometry x="-400" y="512" width="160" height="92" as="geometry"/>
                </mxCell>
                <mxCell id="yD3as-fylKnx1eR_pSZM-109" value="id" style="shape=partialRectangle;top=0;left=0;right=0;bottom=1;align=left;verticalAlign=middle;fillColor=none;spacingLeft=34;spacingRight=4;overflow=hidden;rotatable=0;points=[[0,0.5],[1,0.5]];portConstraint=eastwest;dropTarget=0;fontStyle=5;fontSize=12;" vertex="1" parent="yD3as-fylKnx1eR_pSZM-108">
                    <mxGeometry y="26" width="160" height="30" as="geometry"/>
                </mxCell>
                <mxCell id="yD3as-fylKnx1eR_pSZM-110" value="PK" style="shape=partialRectangle;top=0;left=0;bottom=0;fillColor=none;align=left;verticalAlign=middle;spacingLeft=4;spacingRight=4;overflow=hidden;rotatable=0;points=[];portConstraint=eastwest;part=1;fontSize=12;" vertex="1" connectable="0" parent="yD3as-fylKnx1eR_pSZM-109">
                    <mxGeometry width="30" height="30" as="geometry"/>
                </mxCell>
                <mxCell id="yD3as-fylKnx1eR_pSZM-111" value="name: スポーツ名" style="shape=partialRectangle;top=0;left=0;right=0;bottom=0;align=left;verticalAlign=top;fillColor=none;spacingLeft=34;spacingRight=4;overflow=hidden;rotatable=0;points=[[0,0.5],[1,0.5]];portConstraint=eastwest;dropTarget=0;fontSize=12;" vertex="1" parent="yD3as-fylKnx1eR_pSZM-108">
                    <mxGeometry y="56" width="160" height="26" as="geometry"/>
                </mxCell>
                <mxCell id="yD3as-fylKnx1eR_pSZM-112" value="" style="shape=partialRectangle;top=0;left=0;bottom=0;fillColor=none;align=left;verticalAlign=top;spacingLeft=4;spacingRight=4;overflow=hidden;rotatable=0;points=[];portConstraint=eastwest;part=1;fontSize=12;" vertex="1" connectable="0" parent="yD3as-fylKnx1eR_pSZM-111">
                    <mxGeometry width="30" height="26" as="geometry"/>
                </mxCell>
                <mxCell id="yD3as-fylKnx1eR_pSZM-158" value="" style="shape=partialRectangle;top=0;left=0;right=0;bottom=0;align=left;verticalAlign=top;fillColor=none;spacingLeft=34;spacingRight=4;overflow=hidden;rotatable=0;points=[[0,0.5],[1,0.5]];portConstraint=eastwest;dropTarget=0;fontSize=12;" vertex="1" parent="yD3as-fylKnx1eR_pSZM-108">
                    <mxGeometry y="82" width="160" height="10" as="geometry"/>
                </mxCell>
                <mxCell id="yD3as-fylKnx1eR_pSZM-159" value="" style="shape=partialRectangle;top=0;left=0;bottom=0;fillColor=none;align=left;verticalAlign=top;spacingLeft=4;spacingRight=4;overflow=hidden;rotatable=0;points=[];portConstraint=eastwest;part=1;fontSize=12;" vertex="1" connectable="0" parent="yD3as-fylKnx1eR_pSZM-158">
                    <mxGeometry width="30" height="10" as="geometry"/>
                </mxCell>
                <mxCell id="yD3as-fylKnx1eR_pSZM-60" value="Participation" style="swimlane;fontStyle=0;childLayout=stackLayout;horizontal=1;startSize=26;horizontalStack=0;resizeParent=1;resizeParentMax=0;resizeLast=0;collapsible=1;marginBottom=0;align=center;fontSize=14;" vertex="1" parent="1">
                    <mxGeometry x="-920" y="160" width="200" height="118" as="geometry">
                        <mxRectangle x="280" y="190" width="60" height="26" as="alternateBounds"/>
                    </mxGeometry>
                </mxCell>
                <mxCell id="yD3as-fylKnx1eR_pSZM-61" value="id" style="shape=partialRectangle;top=0;left=0;right=0;bottom=1;align=left;verticalAlign=middle;fillColor=none;spacingLeft=34;spacingRight=4;overflow=hidden;rotatable=0;points=[[0,0.5],[1,0.5]];portConstraint=eastwest;dropTarget=0;fontStyle=5;fontSize=12;" vertex="1" parent="yD3as-fylKnx1eR_pSZM-60">
                    <mxGeometry y="26" width="200" height="30" as="geometry"/>
                </mxCell>
                <mxCell id="yD3as-fylKnx1eR_pSZM-62" value="PK" style="shape=partialRectangle;top=0;left=0;bottom=0;fillColor=none;align=left;verticalAlign=middle;spacingLeft=4;spacingRight=4;overflow=hidden;rotatable=0;points=[];portConstraint=eastwest;part=1;fontSize=12;" vertex="1" connectable="0" parent="yD3as-fylKnx1eR_pSZM-61">
                    <mxGeometry width="30.459374999999998" height="30" as="geometry"/>
                </mxCell>
                <mxCell id="yD3as-fylKnx1eR_pSZM-63" value="user_id" style="shape=partialRectangle;top=0;left=0;right=0;bottom=0;align=left;verticalAlign=top;fillColor=none;spacingLeft=34;spacingRight=4;overflow=hidden;rotatable=0;points=[[0,0.5],[1,0.5]];portConstraint=eastwest;dropTarget=0;fontSize=12;" vertex="1" parent="yD3as-fylKnx1eR_pSZM-60">
                    <mxGeometry y="56" width="200" height="26" as="geometry"/>
                </mxCell>
                <mxCell id="yD3as-fylKnx1eR_pSZM-64" value="FK" style="shape=partialRectangle;top=0;left=0;bottom=0;fillColor=none;align=left;verticalAlign=top;spacingLeft=4;spacingRight=4;overflow=hidden;rotatable=0;points=[];portConstraint=eastwest;part=1;fontSize=12;" vertex="1" connectable="0" parent="yD3as-fylKnx1eR_pSZM-63">
                    <mxGeometry width="30" height="26" as="geometry"/>
                </mxCell>
                <mxCell id="yD3as-fylKnx1eR_pSZM-65" value="event_id" style="shape=partialRectangle;top=0;left=0;right=0;bottom=0;align=left;verticalAlign=top;fillColor=none;spacingLeft=34;spacingRight=4;overflow=hidden;rotatable=0;points=[[0,0.5],[1,0.5]];portConstraint=eastwest;dropTarget=0;fontSize=12;" vertex="1" parent="yD3as-fylKnx1eR_pSZM-60">
                    <mxGeometry y="82" width="200" height="26" as="geometry"/>
                </mxCell>
                <mxCell id="yD3as-fylKnx1eR_pSZM-66" value="FK" style="shape=partialRectangle;top=0;left=0;bottom=0;fillColor=none;align=left;verticalAlign=top;spacingLeft=4;spacingRight=4;overflow=hidden;rotatable=0;points=[];portConstraint=eastwest;part=1;fontSize=12;" vertex="1" connectable="0" parent="yD3as-fylKnx1eR_pSZM-65">
                    <mxGeometry width="30" height="26" as="geometry"/>
                </mxCell>
                <mxCell id="yD3as-fylKnx1eR_pSZM-156" value="" style="shape=partialRectangle;top=0;left=0;right=0;bottom=0;align=left;verticalAlign=top;fillColor=none;spacingLeft=34;spacingRight=4;overflow=hidden;rotatable=0;points=[[0,0.5],[1,0.5]];portConstraint=eastwest;dropTarget=0;fontSize=12;" vertex="1" parent="yD3as-fylKnx1eR_pSZM-60">
                    <mxGeometry y="108" width="200" height="10" as="geometry"/>
                </mxCell>
                <mxCell id="yD3as-fylKnx1eR_pSZM-157" value="" style="shape=partialRectangle;top=0;left=0;bottom=0;fillColor=none;align=left;verticalAlign=top;spacingLeft=4;spacingRight=4;overflow=hidden;rotatable=0;points=[];portConstraint=eastwest;part=1;fontSize=12;" vertex="1" connectable="0" parent="yD3as-fylKnx1eR_pSZM-156">
                    <mxGeometry width="30" height="10" as="geometry"/>
                </mxCell>
                <mxCell id="yD3as-fylKnx1eR_pSZM-126" value="Follow" style="swimlane;fontStyle=0;childLayout=stackLayout;horizontal=1;startSize=26;horizontalStack=0;resizeParent=1;resizeParentMax=0;resizeLast=0;collapsible=1;marginBottom=0;align=center;fontSize=14;" vertex="1" parent="1">
                    <mxGeometry x="-1400" y="516" width="200" height="118" as="geometry">
                        <mxRectangle x="280" y="190" width="60" height="26" as="alternateBounds"/>
                    </mxGeometry>
                </mxCell>
                <mxCell id="yD3as-fylKnx1eR_pSZM-127" value="id" style="shape=partialRectangle;top=0;left=0;right=0;bottom=1;align=left;verticalAlign=middle;fillColor=none;spacingLeft=34;spacingRight=4;overflow=hidden;rotatable=0;points=[[0,0.5],[1,0.5]];portConstraint=eastwest;dropTarget=0;fontStyle=5;fontSize=12;" vertex="1" parent="yD3as-fylKnx1eR_pSZM-126">
                    <mxGeometry y="26" width="200" height="30" as="geometry"/>
                </mxCell>
                <mxCell id="yD3as-fylKnx1eR_pSZM-128" value="PK" style="shape=partialRectangle;top=0;left=0;bottom=0;fillColor=none;align=left;verticalAlign=middle;spacingLeft=4;spacingRight=4;overflow=hidden;rotatable=0;points=[];portConstraint=eastwest;part=1;fontSize=12;" vertex="1" connectable="0" parent="yD3as-fylKnx1eR_pSZM-127">
                    <mxGeometry width="30.459374999999998" height="30" as="geometry"/>
                </mxCell>
                <mxCell id="yD3as-fylKnx1eR_pSZM-129" value="following_id" style="shape=partialRectangle;top=0;left=0;right=0;bottom=0;align=left;verticalAlign=top;fillColor=none;spacingLeft=34;spacingRight=4;overflow=hidden;rotatable=0;points=[[0,0.5],[1,0.5]];portConstraint=eastwest;dropTarget=0;fontSize=12;" vertex="1" parent="yD3as-fylKnx1eR_pSZM-126">
                    <mxGeometry y="56" width="200" height="26" as="geometry"/>
                </mxCell>
                <mxCell id="yD3as-fylKnx1eR_pSZM-130" value="FK" style="shape=partialRectangle;top=0;left=0;bottom=0;fillColor=none;align=left;verticalAlign=top;spacingLeft=4;spacingRight=4;overflow=hidden;rotatable=0;points=[];portConstraint=eastwest;part=1;fontSize=12;" vertex="1" connectable="0" parent="yD3as-fylKnx1eR_pSZM-129">
                    <mxGeometry width="30" height="26" as="geometry"/>
                </mxCell>
                <mxCell id="yD3as-fylKnx1eR_pSZM-131" value="follower_id" style="shape=partialRectangle;top=0;left=0;right=0;bottom=0;align=left;verticalAlign=top;fillColor=none;spacingLeft=34;spacingRight=4;overflow=hidden;rotatable=0;points=[[0,0.5],[1,0.5]];portConstraint=eastwest;dropTarget=0;fontSize=12;" vertex="1" parent="yD3as-fylKnx1eR_pSZM-126">
                    <mxGeometry y="82" width="200" height="26" as="geometry"/>
                </mxCell>
                <mxCell id="yD3as-fylKnx1eR_pSZM-132" value="FK" style="shape=partialRectangle;top=0;left=0;bottom=0;fillColor=none;align=left;verticalAlign=top;spacingLeft=4;spacingRight=4;overflow=hidden;rotatable=0;points=[];portConstraint=eastwest;part=1;fontSize=12;" vertex="1" connectable="0" parent="yD3as-fylKnx1eR_pSZM-131">
                    <mxGeometry width="30" height="26" as="geometry"/>
                </mxCell>
                <mxCell id="yD3as-fylKnx1eR_pSZM-152" value="" style="shape=partialRectangle;top=0;left=0;right=0;bottom=0;align=left;verticalAlign=top;fillColor=none;spacingLeft=34;spacingRight=4;overflow=hidden;rotatable=0;points=[[0,0.5],[1,0.5]];portConstraint=eastwest;dropTarget=0;fontSize=12;" vertex="1" parent="yD3as-fylKnx1eR_pSZM-126">
                    <mxGeometry y="108" width="200" height="10" as="geometry"/>
                </mxCell>
                <mxCell id="yD3as-fylKnx1eR_pSZM-153" value="" style="shape=partialRectangle;top=0;left=0;bottom=0;fillColor=none;align=left;verticalAlign=top;spacingLeft=4;spacingRight=4;overflow=hidden;rotatable=0;points=[];portConstraint=eastwest;part=1;fontSize=12;" vertex="1" connectable="0" parent="yD3as-fylKnx1eR_pSZM-152">
                    <mxGeometry width="30" height="10" as="geometry"/>
                </mxCell>
            </root>
        </mxGraphModel>
    </diagram>
</mxfile>